<svg width="94" height="31" viewBox="0 0 94 31" fill="none" xmlns="http://www.w3.org/2000/svg">
<path d="M9.8 2.8C8.01333 3.54667 6.62667 4.66667 5.64 6.16C4.68 7.65333 4.2 9.45333 4.2 11.56C4.2 12.5467 4.29333 13.24 4.48 13.64C4.66667 14.0133 4.76 14.2267 4.76 14.28C3.32 14.28 2.24 13.9867 1.52 13.4C0.826667 12.7867 0.48 11.7867 0.48 10.4C0.48 8.69333 1.17333 7.04 2.56 5.44C3.97333 3.81333 5.77333 2.50667 7.96 1.52C10.1467 0.506665 12.3333 -2.38419e-06 14.52 -2.38419e-06C14.8933 -2.38419e-06 15.4267 0.0266647 16.12 0.079999L13.56 12H19.44L22 0.079999H27.76L21.4 30H15.64L18.84 14.96H12.96L9.76 30H4L9.8 2.8ZM33.2816 7.84C32.4016 7.84 31.6549 7.53333 31.0416 6.92C30.4282 6.30667 30.1216 5.56 30.1216 4.68C30.1216 3.8 30.4282 3.05333 31.0416 2.44C31.6549 1.8 32.4016 1.48 33.2816 1.48C34.1616 1.48 34.9082 1.8 35.5216 2.44C36.1616 3.05333 36.4816 3.8 36.4816 4.68C36.4816 5.56 36.1616 6.30667 35.5216 6.92C34.9082 7.53333 34.1616 7.84 33.2816 7.84ZM30.5616 30.24C29.2816 30.24 28.2416 29.84 27.4416 29.04C26.6682 28.24 26.2816 27.04 26.2816 25.44C26.2816 24.7733 26.3882 23.9067 26.6016 22.84L29.3216 10H35.0816L32.2016 23.6C32.0949 24 32.0416 24.4267 32.0416 24.88C32.0416 25.4133 32.1616 25.8 32.4016 26.04C32.6682 26.2533 33.0949 26.36 33.6816 26.36C34.4549 26.36 35.1749 26.04 35.8416 25.4C36.5082 24.7333 36.9882 23.88 37.2816 22.84H38.9616C37.9749 25.72 36.7082 27.68 35.1616 28.72C33.6149 29.7333 32.0816 30.24 30.5616 30.24ZM55.8575 2.68C53.9642 3.4 52.4975 4.52 51.4575 6.04C50.4175 7.53333 49.8975 9.37333 49.8975 11.56C49.8975 12.5467 49.9908 13.24 50.1775 13.64C50.3642 14.0133 50.4575 14.2267 50.4575 14.28C49.0175 14.28 47.9375 13.9867 47.2175 13.4C46.5242 12.7867 46.1775 11.7867 46.1775 10.4C46.1775 8.69333 46.8708 7.04 48.2575 5.44C49.6708 3.81333 51.4708 2.50667 53.6575 1.52C55.8442 0.506665 58.0308 -2.38419e-06 60.2175 -2.38419e-06C60.5908 -2.38419e-06 61.1242 0.0266647 61.8175 0.079999L62.1775 24.68L70.5775 0.199997H73.3775L62.2575 30H56.4975L55.8575 2.68ZM76.3869 30.16C74.4135 30.16 72.8535 29.6533 71.7069 28.64C70.5602 27.6267 69.9869 26.0267 69.9869 23.84C69.9869 22.0267 70.3602 20.0133 71.1069 17.8C71.8535 15.5867 73.0535 13.68 74.7069 12.08C76.3602 10.4533 78.4402 9.64 80.9469 9.64C84.3602 9.64 86.0669 11.7733 86.0669 16.04V16.08C86.1469 16.1067 86.2935 16.12 86.5069 16.12C87.3869 16.12 88.4002 15.8933 89.5469 15.44C90.6935 14.96 91.7335 14.3867 92.6669 13.72L93.0269 14.8C92.2535 15.6267 91.2402 16.3333 89.9869 16.92C88.7602 17.48 87.4135 17.88 85.9469 18.12C85.7335 20.5467 85.1869 22.6667 84.3069 24.48C83.4269 26.2933 82.2935 27.6933 80.9069 28.68C79.5202 29.6667 78.0135 30.16 76.3869 30.16ZM77.9869 26.56C78.6269 26.56 79.2669 26.2 79.9069 25.48C80.5469 24.7333 81.1069 23.7333 81.5869 22.48C82.0669 21.2 82.4135 19.7867 82.6269 18.24C81.9069 18.08 81.5469 17.52 81.5469 16.56C81.5469 15.4667 81.9602 14.7467 82.7869 14.4C82.7335 13.52 82.6002 12.92 82.3869 12.6C82.1735 12.2533 81.8002 12.08 81.2669 12.08C80.3869 12.08 79.5335 12.72 78.7069 14C77.8802 15.28 77.2135 16.8133 76.7069 18.6C76.2002 20.3867 75.9469 21.96 75.9469 23.32C75.9469 24.6 76.0935 25.4667 76.3869 25.92C76.6802 26.3467 77.2135 26.56 77.9869 26.56Z" fill="white"/>
</svg>
