<svg width="20" height="26" viewBox="0 0 20 26" fill="none" xmlns="http://www.w3.org/2000/svg">
<path d="M14.8126 0.0126673C14.7605 -0.0474496 12.8864 0.0363977 11.2555 1.8668C9.62461 3.69562 9.87552 5.79338 9.91224 5.84717C9.94895 5.90096 12.2377 5.9848 13.6988 3.85698C15.1599 1.72916 14.8646 0.0743662 14.8126 0.0126673ZM19.8827 18.5745C19.8093 18.4227 16.3257 16.6223 16.65 13.1609C16.9743 9.6994 19.2126 8.7486 19.2478 8.64577C19.283 8.54294 18.3344 7.39597 17.3293 6.81537C16.5911 6.40642 15.7744 6.17191 14.938 6.12877C14.7728 6.12402 14.1991 5.97848 13.0195 6.31228C12.2423 6.53218 10.4905 7.2441 10.0086 7.27257C9.52516 7.30105 8.08704 6.44675 6.54029 6.22053C5.55043 6.02277 4.50091 6.42777 3.74972 6.73943C3.00006 7.04951 1.57417 7.93228 0.576666 10.2784C-0.420841 12.623 0.100861 16.3376 0.474162 17.4924C0.847462 18.6473 1.43036 20.5363 2.42175 21.9158C3.30298 23.4725 4.47184 24.553 4.95989 24.92C5.44793 25.2871 6.82486 25.5307 7.77953 25.026C8.54755 24.5388 9.93365 24.2588 10.4814 24.2793C11.0275 24.2999 12.1046 24.523 13.2077 25.132C14.0813 25.4437 14.9074 25.314 15.7351 24.9659C16.5628 24.6163 17.7607 23.2906 19.1591 20.6027C19.6894 19.3529 19.9307 18.6768 19.8827 18.5745Z" fill="black"/>
</svg>
