<svg width="17" height="20" viewBox="0 0 17 20" fill="none" xmlns="http://www.w3.org/2000/svg">
<path d="M9.80065 1.64858L9.80072 1.6485C10.4651 0.959214 11.1771 0.600604 11.7253 0.41977C11.9998 0.329251 12.2318 0.28375 12.3942 0.263592C12.416 0.260884 12.4363 0.258657 12.4552 0.256847C12.456 0.265994 12.4567 0.27552 12.4573 0.285419C12.4665 0.422451 12.464 0.624072 12.4233 0.876824C12.3422 1.38075 12.1087 2.09035 11.5085 2.89842C10.9243 3.68486 10.1752 4.06295 9.56465 4.24004C9.25911 4.32866 8.99045 4.36621 8.79895 4.37921C8.76074 4.38181 8.72594 4.3834 8.69486 4.38425C8.69383 4.36151 8.69305 4.33677 8.69266 4.31013C8.69015 4.14164 8.70279 3.90267 8.75752 3.62114C8.86678 3.05917 9.14304 2.33023 9.80065 1.64858ZM11.1918 5.22935L11.1918 5.22934L12.7684 4.84248L12.7565 5.0922C12.7571 5.09223 12.7577 5.09226 12.7584 5.09229C13.4367 5.12491 14.0986 5.30068 14.6965 5.60653C15.098 5.82125 15.4961 6.14536 15.7926 6.43002C15.9221 6.55431 16.029 6.66799 16.1057 6.75772C16.0715 6.77909 16.0338 6.80316 15.9934 6.82995C15.7945 6.96181 15.5284 7.16028 15.254 7.44695C14.7025 8.02317 14.1277 8.94546 13.983 10.3735C13.8337 11.846 14.5644 12.9555 15.3097 13.6955C15.6832 14.0664 16.0661 14.3506 16.3571 14.5485C16.4827 14.634 16.5922 14.704 16.6749 14.7569C16.6879 14.7652 16.7002 14.7731 16.7118 14.7806C16.7175 14.7842 16.7229 14.7877 16.7281 14.791C16.7095 14.8534 16.68 14.9381 16.6378 15.0474C16.5382 15.3055 16.3773 15.6772 16.1535 16.165C15.5635 17.2121 15.0201 17.9866 14.5423 18.5302C14.0596 19.0794 13.6586 19.3761 13.3591 19.4932C12.6919 19.7525 12.0534 19.8409 11.3853 19.6257C10.4168 19.135 9.46888 18.9513 8.96772 18.9338L8.9677 18.9338C8.70192 18.9246 8.26426 18.9812 7.8184 19.0847C7.37504 19.1876 6.89088 19.3444 6.53187 19.5529C6.17801 19.7233 5.73186 19.773 5.31418 19.7408C4.88702 19.7079 4.53903 19.5937 4.3822 19.4846C3.98766 19.2104 3.01502 18.3806 2.28321 17.1856L2.27593 17.1737L2.26738 17.1627C1.48411 16.1552 1.00515 14.7819 0.682478 13.8567C0.668455 13.8165 0.654727 13.7771 0.641281 13.7387C0.492028 13.3118 0.303577 12.3756 0.259496 11.3133C0.21534 10.2492 0.318068 9.09904 0.72001 8.22574L0.720037 8.22568C1.54158 6.43952 2.70568 5.78358 3.29438 5.5585L3.29462 5.5584C3.94395 5.30938 4.77753 5.0191 5.54496 5.16083L5.54491 5.16111L5.55687 5.16273C6.18992 5.24832 6.80659 5.45374 7.32897 5.64136C7.39895 5.66649 7.46782 5.69152 7.53502 5.71594C7.7142 5.78107 7.88151 5.84187 8.0262 5.88879C8.21496 5.94999 8.41202 6.00438 8.56853 5.99586L8.56858 5.99586C8.70299 5.98852 8.89914 5.94113 9.10503 5.8833C9.31882 5.82325 9.56936 5.74409 9.82426 5.66136C9.94417 5.62245 10.0646 5.58289 10.183 5.54402C10.575 5.4153 10.9438 5.2942 11.1918 5.22935ZM16.7501 14.7011C16.7501 14.7016 16.75 14.7021 16.7499 14.7028L16.7501 14.7011Z" stroke="white" stroke-width="0.5"/>
</svg>
