<svg width="15" height="24" viewBox="0 0 15 24" fill="none" xmlns="http://www.w3.org/2000/svg">
<path d="M10.4875 0.999823L10.4876 0.999513C8.97995 0.924413 7.50389 1.44908 6.38189 2.45887C5.2616 3.46714 4.58524 4.87722 4.5 6.38182V9.74982V9.99982H4.25H1.125C1.02554 9.99982 0.930162 10.0393 0.859835 10.1097C0.789509 10.18 0.75 10.2754 0.75 10.3748V13.6248C0.75 13.7243 0.789509 13.8197 0.859835 13.89C0.930162 13.9603 1.02554 13.9998 1.125 13.9998H4.25H4.5V14.2498V22.6248C4.5 22.7243 4.53951 22.8197 4.60984 22.89C4.68016 22.9603 4.77554 22.9998 4.875 22.9998H8.625C8.72446 22.9998 8.81984 22.9603 8.89017 22.89C8.96049 22.8197 9 22.7243 9 22.6248V14.2498V13.9998H9.25H12.525H12.5286L12.5286 13.9998C12.612 14.001 12.6934 13.9744 12.76 13.9242C12.8265 13.8739 12.8744 13.8029 12.8961 13.7223L12.8966 13.7206L13.7961 10.4723C13.7962 10.4721 13.7962 10.4718 13.7963 10.4716C13.811 10.4164 13.813 10.3586 13.802 10.3025C13.7909 10.2462 13.7671 10.1932 13.7323 10.1475C13.6975 10.1019 13.6527 10.0648 13.6014 10.0392C13.5502 10.0137 13.4939 10.0002 13.4367 9.99982H9.25H9V9.74982V6.37482V6.36229L9.00125 6.34983C9.03856 5.97854 9.21293 5.63449 9.49029 5.38487C9.76748 5.13539 10.1277 4.99813 10.5006 4.99982M10.4875 0.999823L10.5 5.24982M10.4875 0.999823H10.5M10.4875 0.999823H10.5M10.5006 4.99982C10.5008 4.99982 10.501 4.99983 10.5013 4.99983L10.5 5.24982M10.5006 4.99982H10.5V5.24982M10.5006 4.99982H13.625C13.7245 4.99982 13.8198 4.96031 13.8902 4.88999L14.0669 5.06676M10.5 5.24982H13.625C13.7908 5.24982 13.9497 5.18397 14.0669 5.06676M14.0669 5.06676L13.8902 4.88999C13.9605 4.81966 14 4.72428 14 4.62482V1.37482C14 1.27537 13.9605 1.17998 13.8902 1.10966C13.8198 1.03933 13.7245 0.999823 13.625 0.999823H10.5M14.0669 5.06676L10.5 0.999823" fill="white" stroke="white" stroke-width="0.5"/>
</svg>
