<svg width="20" height="20" viewBox="0 0 20 20" fill="none" xmlns="http://www.w3.org/2000/svg">
<path d="M9.99996 18.3333L9.16663 15.8333H3.33329C2.87496 15.8333 2.4826 15.6701 2.15621 15.3438C1.82982 15.0174 1.66663 14.625 1.66663 14.1667V3.33334C1.66663 2.87501 1.82982 2.48264 2.15621 2.15626C2.4826 1.82987 2.87496 1.66667 3.33329 1.66667H8.33329L9.06246 4.16667H16.6666C17.1527 4.16667 17.552 4.32292 17.8645 4.63542C18.177 4.94792 18.3333 5.34723 18.3333 5.83334V16.6667C18.3333 17.125 18.177 17.5174 17.8645 17.8438C17.552 18.1701 17.1527 18.3333 16.6666 18.3333H9.99996ZM5.95829 12.1667C6.91663 12.1667 7.70482 11.8576 8.32288 11.2396C8.94093 10.6215 9.24996 9.81945 9.24996 8.83334C9.24996 8.72223 9.24649 8.62153 9.23954 8.53126C9.2326 8.44098 9.21524 8.34723 9.18746 8.25001H5.89579V9.54167H7.74996C7.63885 9.93056 7.42704 10.2326 7.11454 10.4479C6.80204 10.6632 6.42357 10.7708 5.97913 10.7708C5.43746 10.7708 4.97218 10.5764 4.58329 10.1875C4.1944 9.79862 3.99996 9.31945 3.99996 8.75001C3.99996 8.18056 4.1944 7.70139 4.58329 7.31251C4.97218 6.92362 5.43746 6.72917 5.97913 6.72917C6.22913 6.72917 6.46524 6.77431 6.68746 6.86459C6.90968 6.95487 7.11107 7.09028 7.29163 7.27084L8.31246 6.29167C8.02079 5.98612 7.6701 5.75001 7.26038 5.58334C6.85065 5.41667 6.41663 5.33334 5.95829 5.33334C5.02774 5.33334 4.2326 5.6632 3.57288 6.32292C2.91315 6.98264 2.58329 7.79167 2.58329 8.75001C2.58329 9.70834 2.91315 10.5174 3.57288 11.1771C4.2326 11.8368 5.02774 12.1667 5.95829 12.1667ZM11.5416 12.5833L12 12.1458C11.8055 11.9097 11.6284 11.6806 11.4687 11.4583C11.309 11.2361 11.1527 11 11 10.75L11.5416 12.5833ZM12.5833 11.5208C12.9722 11.0625 13.2673 10.625 13.4687 10.2083C13.6701 9.79167 13.8055 9.46528 13.875 9.22917H10.5625L10.8125 10.1042H11.6458C11.7569 10.3125 11.8888 10.5382 12.0416 10.7813C12.1944 11.0243 12.375 11.2708 12.5833 11.5208ZM10.8333 17.5H16.6666C16.9166 17.5 17.118 17.4201 17.2708 17.2604C17.4236 17.1007 17.5 16.9028 17.5 16.6667V5.83334C17.5 5.58334 17.4236 5.38195 17.2708 5.22917C17.118 5.07639 16.9166 5.00001 16.6666 5.00001H9.31246L10.2916 8.37501H11.9375V7.50001H12.7916V8.37501H15.8333V9.22917H14.7708C14.6319 9.75695 14.4236 10.2708 14.1458 10.7708C13.868 11.2708 13.5416 11.7361 13.1666 12.1667L15.4375 14.3958L14.8333 15L12.5833 12.75L11.8333 13.5208L12.5 15.8333L10.8333 17.5Z" fill="url(#paint0_linear_146_76)"/>
<defs>
<linearGradient id="paint0_linear_146_76" x1="9.99996" y1="1.66667" x2="9.99996" y2="18.3333" gradientUnits="userSpaceOnUse">
<stop stop-color="#FF1493"/>
<stop offset="1" stop-color="#00FFFF"/>
</linearGradient>
</defs>
</svg>
