<svg width="25" height="26" viewBox="0 0 25 26" fill="none" xmlns="http://www.w3.org/2000/svg">
<path d="M24.6405 10.3754C24.7885 11.2248 24.8622 12.0855 24.8608 12.9477C24.8608 16.7983 23.4818 20.054 21.0819 22.2577H21.0851C18.9864 24.1925 16.1015 25.3125 12.6809 25.3125C9.31769 25.3125 6.09226 23.9791 3.71414 21.6057C1.33602 19.2322 0 16.0132 0 12.6566C0 9.30008 1.33602 6.08101 3.71414 3.70758C6.09226 1.33414 9.31769 0.000756192 12.6809 0.000756192C15.8285 -0.0342277 18.8679 1.14582 21.1644 3.29445L17.544 6.9077C16.235 5.66307 14.4886 4.98134 12.6809 5.00932C9.37274 5.00932 6.56235 7.23675 5.56056 10.2362C5.03033 11.8081 5.03033 13.5099 5.56056 15.0818H5.56531C6.57186 18.0765 9.3775 20.3039 12.6856 20.3039C14.3944 20.3039 15.8622 19.8673 17.0003 19.0953H16.9955C17.6565 18.6585 18.2219 18.0925 18.6575 17.4315C19.0931 16.7705 19.39 16.0282 19.5301 15.2495H12.6809V10.377L24.6405 10.3754Z" fill="white"/>
</svg>
