<svg width="20" height="20" viewBox="0 0 20 20" fill="none" xmlns="http://www.w3.org/2000/svg">
<path d="M14.4107 14.8376H14.5025L13.815 15.2957C12.8524 15.937 11.6216 16.2926 10.2053 16.2926C7.49505 16.2926 5.1914 14.5425 4.30122 12.1665H4.29487L4.2369 11.9977C3.79232 10.7032 3.79227 9.30153 4.23676 8.00705C5.07521 5.54189 7.42656 3.70882 10.1996 3.70798C10.2002 3.70798 10.2008 3.70798 10.2015 3.70798V3.95798C11.6557 3.93587 13.0607 4.47453 14.1137 5.45793L14.4107 14.8376ZM14.4107 14.8376C14.7171 14.5642 14.9882 14.2535 15.2171 13.9123C15.5866 13.3618 15.8385 12.7432 15.9574 12.094L16.0115 11.799H15.7115H10.4515V8.44907L19.6112 8.44788C19.7046 9.03735 19.751 9.63315 19.75 10.2299V10.2303C19.75 13.2104 18.6646 15.7123 16.7925 17.4007L16.6552 17.5245C15.03 18.9315 12.8226 19.75 10.2015 19.75C7.56058 19.75 5.02884 18.7216 3.16294 16.8926C1.29722 15.0638 0.25 12.5844 0.25 10.0003C0.25 7.41615 1.29722 4.9368 3.16294 3.10798C5.02884 1.27898 7.56058 0.250597 10.2015 0.250612L10.2042 0.250583C12.5846 0.224598 14.8853 1.06867 16.6605 2.61143L14.106 5.11545L14.4107 14.8376ZM20 10.2303C20 13.1303 18.992 15.6032 17.2257 17.3363H16.9625H16.9599V17.5835L20 10.2303Z" stroke="white" stroke-width="0.5"/>
</svg>
