<svg width="15" height="15" viewBox="0 0 15 15" fill="none" xmlns="http://www.w3.org/2000/svg">
<path d="M7.50189 14.85H7.50169H7.18357C5.33636 14.7432 3.59452 13.9547 2.29563 12.6372C0.995977 11.3189 0.232495 9.56498 0.153284 7.71576C0.116011 6.46972 0.396529 5.23469 0.968439 4.12693C1.54049 3.01888 2.38526 2.07464 3.42318 1.38313C4.46111 0.691628 5.65802 0.275621 6.90119 0.174296C8.14399 0.073002 9.39212 0.289532 10.5281 0.803493C10.6441 0.858219 10.7479 0.93562 10.8334 1.03113C10.919 1.12674 10.9846 1.23855 11.0262 1.35994C11.067 1.48278 11.0823 1.61265 11.0712 1.74161C11.0601 1.87071 11.0227 1.99618 10.9614 2.11033C10.9613 2.11039 10.9613 2.11045 10.9613 2.11051L9.99423 3.89413L9.99418 3.89424C9.88403 4.09778 9.70188 4.25294 9.48335 4.32934C9.26482 4.40574 9.02564 4.3979 8.81259 4.30734L8.81261 4.30728L8.80876 4.30577C8.15742 4.04988 7.44462 3.99364 6.7612 4.14423C6.07778 4.29482 5.45467 4.64541 4.97128 5.15135L4.97127 5.15133L4.96967 5.15307C4.64569 5.50301 4.39765 5.9162 4.24117 6.36664C4.08468 6.81709 4.02313 7.29503 4.06039 7.77041L4.06035 7.77041L4.0607 7.77386C4.10744 8.23352 4.2469 8.67894 4.47065 9.08321C4.69405 9.48682 4.99685 9.84106 5.3608 10.1246C5.73328 10.432 6.16476 10.6599 6.62868 10.7944C7.0933 10.929 7.58061 10.967 8.06049 10.906L8.06153 10.9058C8.47292 10.8506 8.8688 10.7124 9.22521 10.4997C9.58162 10.287 9.89113 10.0042 10.135 9.6684L10.3079 9.43026H10.0136H7.83911C7.59164 9.43027 7.35421 9.33243 7.17863 9.15811C7.00318 8.98391 6.9037 8.74747 6.90186 8.50031V6.49184C6.90186 6.24336 7.0006 6.00505 7.17636 5.82933C7.35213 5.65362 7.59053 5.55489 7.83911 5.55489H13.9122C14.1593 5.55668 14.3958 5.65515 14.5711 5.8292C14.7463 6.00313 14.8464 6.23869 14.85 6.48545V7.8897C14.7511 9.76961 13.934 11.5399 12.5674 12.8351C11.1998 14.1312 9.38637 14.8525 7.50189 14.85ZM8.25152 8.23852H12.0285L11.7826 9.01789L11.7826 9.01789L11.7818 9.0208C11.5472 9.8204 11.0878 10.5358 10.4581 11.0818C9.82842 11.6277 9.05506 11.9813 8.23009 12.1004L8.22999 12.1005C7.59016 12.1933 6.93816 12.1554 6.31336 11.9893C5.68859 11.8231 5.10398 11.5321 4.59485 11.1338C4.09384 10.7409 3.67997 10.2481 3.37948 9.68687C3.07898 9.12557 2.89843 8.50797 2.84927 7.87323C2.80012 7.2385 2.88343 6.60047 3.09394 5.99963C3.30444 5.39878 3.63754 4.84821 4.07212 4.38284L4.07243 4.3825C4.68079 3.72699 5.46231 3.25699 6.32663 3.02682C7.19096 2.79666 8.10279 2.81574 8.95672 3.08186L9.07478 3.11865L9.13341 3.00978L9.71078 1.93783L9.79295 1.78529L9.63021 1.72581C8.94829 1.47661 8.2272 1.35165 7.50117 1.35688C6.67817 1.35659 5.86347 1.52148 5.10539 1.84178C4.34712 2.16216 3.66092 2.6315 3.08748 3.22197C2.51405 3.81244 2.06505 4.51201 1.76713 5.27921C1.4692 6.04641 1.32841 6.86561 1.35311 7.68823L1.3531 7.68823L1.35318 7.69014C1.41926 9.23536 2.05728 10.7009 3.14338 11.8023C4.22948 12.9037 5.68618 13.5624 7.23071 13.6505L7.23249 13.6506C8.85472 13.7238 10.44 13.1524 11.6424 12.0613C12.8448 10.9701 13.5665 9.44768 13.6501 7.82638L13.6503 7.82639V7.81866V6.90413V6.75413H13.5003H8.25152H8.10152V6.90413V8.08852V8.23852H8.25152Z" stroke="white" stroke-width="0.3"/>
</svg>
