<svg width="21" height="21" viewBox="0 0 21 21" fill="none" xmlns="http://www.w3.org/2000/svg">
<path d="M13.3875 14.6125L14.6125 13.3875L11.375 10.15V6.125H9.625V10.85L13.3875 14.6125ZM10.5 19.25C9.28958 19.25 8.15208 19.0203 7.0875 18.5609C6.02292 18.1016 5.09687 17.4781 4.30938 16.6906C3.52187 15.9031 2.89844 14.9771 2.43906 13.9125C1.97969 12.8479 1.75 11.7104 1.75 10.5C1.75 9.28958 1.97969 8.15208 2.43906 7.0875C2.89844 6.02292 3.52187 5.09687 4.30938 4.30938C5.09687 3.52187 6.02292 2.89844 7.0875 2.43906C8.15208 1.97969 9.28958 1.75 10.5 1.75C11.7104 1.75 12.8479 1.97969 13.9125 2.43906C14.9771 2.89844 15.9031 3.52187 16.6906 4.30938C17.4781 5.09687 18.1016 6.02292 18.5609 7.0875C19.0203 8.15208 19.25 9.28958 19.25 10.5C19.25 11.7104 19.0203 12.8479 18.5609 13.9125C18.1016 14.9771 17.4781 15.9031 16.6906 16.6906C15.9031 17.4781 14.9771 18.1016 13.9125 18.5609C12.8479 19.0203 11.7104 19.25 10.5 19.25ZM10.5 17.5C12.4396 17.5 14.0911 16.8182 15.4547 15.4547C16.8182 14.0911 17.5 12.4396 17.5 10.5C17.5 8.56042 16.8182 6.90885 15.4547 5.54531C14.0911 4.18177 12.4396 3.5 10.5 3.5C8.56042 3.5 6.90885 4.18177 5.54531 5.54531C4.18177 6.90885 3.5 8.56042 3.5 10.5C3.5 12.4396 4.18177 14.0911 5.54531 15.4547C6.90885 16.8182 8.56042 17.5 10.5 17.5Z" fill="url(#paint0_linear_146_83)"/>
<defs>
<linearGradient id="paint0_linear_146_83" x1="10.5" y1="1.75" x2="10.5" y2="19.25" gradientUnits="userSpaceOnUse">
<stop stop-color="#FF1493"/>
<stop offset="1" stop-color="#00FFFF"/>
</linearGradient>
</defs>
</svg>
