<svg width="18" height="17" viewBox="0 0 18 17" fill="none" xmlns="http://www.w3.org/2000/svg">
<path d="M5.53641 16H5.53653C12.0011 16 15.5764 10.1053 15.5764 4.9421V4.93995H15.5764C15.5778 4.77312 15.5756 4.6063 15.5699 4.43947L15.5656 4.31374L15.664 4.23534C16.14 3.85606 16.5713 3.41371 16.9484 2.91866C16.5022 3.07286 16.0433 3.182 15.5775 3.24427L15.4071 2.78755C15.9278 2.44531 16.3547 1.95567 16.645 1.372C16.0878 1.66016 15.4987 1.87163 14.8912 2.00049L14.7458 2.03134L14.6492 1.91826C14.1395 1.32128 13.4687 0.929787 12.7428 0.798658C12.0172 0.667593 11.2714 0.802826 10.6197 1.18628C9.96739 1.57009 9.4438 2.18262 9.13459 2.93308C8.82531 3.68371 8.74934 4.52705 8.9195 5.33133L8.98705 5.65059L8.66122 5.6327C7.18459 5.55166 5.741 5.13 4.42432 4.39624C3.22538 3.7281 2.15655 2.81509 1.2739 1.70874C0.977127 2.44815 0.903639 3.27882 1.07189 4.07533C1.26832 5.00519 1.77786 5.81209 2.49013 6.33626L3.14232 6.81621L2.33307 6.78746C1.86357 6.77077 1.40265 6.66128 0.972062 6.46628C1.03887 7.19889 1.30015 7.89485 1.72444 8.46536C2.21913 9.13053 2.90353 9.58282 3.65912 9.75244L4.58512 9.96032L3.67688 10.2356C3.34345 10.3367 2.99868 10.3872 2.65227 10.3857C2.65159 10.3857 2.65091 10.3857 2.65023 10.3857L2.6515 10.1357C2.51769 10.1372 2.38401 10.1298 2.25119 10.1135L5.53641 16ZM5.53641 16C3.93771 16.0008 2.36533 15.5806 0.948799 14.7792C2.60902 14.7593 4.21479 14.1378 5.51696 13.0145L6.01191 12.5875L5.35836 12.5752C4.66197 12.5621 3.98396 12.3096 3.4197 11.8489C2.95296 11.4679 2.58326 10.9598 2.34635 10.3746L5.53641 16Z" stroke="white" stroke-width="0.5"/>
</svg>
